<?xml version="1.0" encoding="UTF-8"?>
<svg id="Layer_2" data-name="Layer 2" xmlns="http://www.w3.org/2000/svg" viewBox="0 0 335.42 298.3">
  <defs>
    <style>
      .cls-1 {
        fill: #fff;
      }

      .cls-2 {
        fill: none;
        stroke: #fff;
        stroke-linecap: round;
        stroke-linejoin: round;
        stroke-width: 7px;
      }
    </style>
  </defs>
  <g id="Layer_1-2">
    <g>
      <polygon class="cls-2" points="216.99 3.5 13.25 3.5 13.25 294.8 216.99 294.8 229.31 294.8 317.03 294.8 317.03 3.5 216.99 3.5"/>
      <path class="cls-1" d="M306.51,114.16l-21.72,39.11c-.83,1.5-2.99,1.51-3.84,0l-14.19-25.27c-.39-.69-1.12-1.12-1.92-1.12h-25.74c-1.6,0-2.66-1.65-2-3.11,2.31-5.06,5.79-16.54,2.75-36.23,0-.05-.01-.1-.02-.15-.14-1.78-3.38-36.71-42.31-36.2h-42.23c-1.21,0-2.19,.98-2.2,2.19l-.25,71.82c0,1.22-1,2.2-2.22,2.19l-38.19-.47c-1.2-.01-2.17-.99-2.17-2.2V53.38c0-1.21-.98-2.2-2.2-2.2h-37.8c-.79,0-1.51,.42-1.9,1.1L.29,170.58c-.63,1.1-.21,2.5,.92,3.06l26.79,13.4c1.08,.54,2.4,.1,2.95-.98l20.79-41.58c1.04-2.07,4.16-1.34,4.16,.98v10.18c0,1.23,1.01,2.22,2.24,2.2l43.61-.92c1.72-.04,2.81,1.82,1.94,3.3l-51.47,88.29c-.85,1.46,.2,3.3,1.9,3.3h93.86c1.21,0,2.2-.98,2.2-2.2v-26.1c0-1.21-.98-2.2-2.2-2.2h-38.59c-1.67,0-2.73-1.79-1.92-3.26l41.05-74.43c1.1-1.99,4.12-1.21,4.12,1.06v41.12c0,1.22,1,2.21,2.22,2.2l26.45-.3c1.2-.01,2.17-.99,2.17-2.2v-29.98c0-2.19,2.85-3.03,4.04-1.19l31.24,48.35c.65,1.01,1.99,1.31,3,.67l22.22-13.81c1.04-.64,1.35-2.01,.69-3.04l-25.4-40.01c-.72-1.14-.26-2.65,.97-3.19,2.39-1.05,6.1-3.08,9.1-6.5,.96-1.1,2.71-.97,3.5,.26l31.92,49.83c.45,.7,.46,1.58,.04,2.3l-34.87,59.31c-.86,1.46,.19,3.31,1.89,3.31h32.38c.79,0,1.52-.43,1.91-1.11l69.02-121.99c.62-1.09,.2-2.48-.93-3.05l-24.79-12.39c-1.05-.53-2.33-.13-2.9,.9Zm-228.28,12.99h-16.81c-.38,0-.63-.39-.47-.74l16.81-35.8c.23-.5,.98-.33,.98,.22v35.8c0,.29-.23,.52-.52,.52Zm135.09-24.44c-.92,24.31-19.45,24.44-19.45,24.44h-10.26c-.29,0-.52-.23-.52-.52v-47.85c0-.29,.23-.52,.52-.52h8.7c2.93,0,5.83,.68,8.43,2.04,13.97,7.28,12.58,22.4,12.58,22.4Z"/>
    </g>
  </g>
</svg>