<svg xmlns="http://www.w3.org/2000/svg" xmlns:xlink="http://www.w3.org/1999/xlink" width="53.904" height="42.812" viewBox="0 0 53.904 42.812">
  <defs>
    <clipPath id="clip-path">
      <rect id="Rectangle_170" data-name="Rectangle 170" width="53.904" height="42.812" fill="none"/>
    </clipPath>
  </defs>
  <g id="Group_84" data-name="Group 84" transform="translate(0 0)">
    <g id="Group_83" data-name="Group 83" transform="translate(0 0)" clip-path="url(#clip-path)">
      <path id="Path_103" data-name="Path 103" d="M51.865,35.267c-16.813-6.9-33.627,9.106-50.44,1.642A2.43,2.43,0,0,1,0,34.682V7.08A1.471,1.471,0,0,1,2.039,5.727c16.813,6.9,33.627-9.105,50.441-1.642A2.43,2.43,0,0,1,53.9,6.313v27.6a1.47,1.47,0,0,1-2.039,1.352" transform="translate(0 -0.56)" fill="#f71d4c"/>
      <path id="Path_104" data-name="Path 104" d="M46.606,30.794c-11.979-1.048-23.957,6.288-35.936,5.24a5.858,5.858,0,0,0-4.492-5.31V17.248a3.542,3.542,0,0,0,4.492-3.673c11.979,1.048,23.957-6.289,35.936-5.241A5.857,5.857,0,0,0,51.1,13.644V27.121a3.542,3.542,0,0,0-4.492,3.673" transform="translate(-1.687 -2.246)" fill="#fff"/>
      <path id="Path_105" data-name="Path 105" d="M33.907,31.125c-2.224.293-3.838-.6-4.209-2.789,1.085-.542,2.171-1.105,3.256-1.676a1.487,1.487,0,0,0,1.985,1.071,1.72,1.72,0,0,0,1.429-1.513c0-.449-.265-.8-1.165-.86q-.926-.1-1.852-.2c-2.276-.231-3.256-1.493-3.256-3.211,0-2.17,1.667-4,3.811-4.928V14.661c.856-.224,1.711-.45,2.568-.673V16.4a3.272,3.272,0,0,1,3.573,2.626c-1.068.516-2.135,1.051-3.2,1.592a1.208,1.208,0,0,0-1.588-.882A1.438,1.438,0,0,0,34.066,21c0,.45.265.8,1.191.852.574.062,1.147.123,1.721.187,1.482.113,3.44.681,3.44,3.173,0,2.3-1.64,4.162-3.943,5.19v2.382c-.856.222-1.712.449-2.568.673V31.125" transform="translate(-8.107 -3.818)" fill="#f71d4c"/>
      <rect id="Rectangle_168" data-name="Rectangle 168" width="2.45" height="53.243" transform="translate(8.73 5.163) rotate(-45)" fill="#fff"/>
      <rect id="Rectangle_169" data-name="Rectangle 169" width="2.45" height="53.243" transform="translate(8.73 1.733) rotate(-45)" fill="#f71d4c"/>
    </g>
  </g>
</svg>
