<svg id="Group_5" data-name="Group 5" xmlns="http://www.w3.org/2000/svg" xmlns:xlink="http://www.w3.org/1999/xlink" width="629.321" height="437.599" viewBox="0 0 629.321 437.599">
  <defs>
    <clipPath id="clip-path">
      <rect id="Rectangle_3" data-name="Rectangle 3" width="629.321" height="437.599" fill="#595e5c"/>
    </clipPath>
  </defs>
  <g id="Group_5-2" data-name="Group 5" clip-path="url(#clip-path)">
    <path id="Path_5" data-name="Path 5" d="M100.119,30.6,81.634,38.036a2.722,2.722,0,0,0-1.707,2.524V92.6a32.613,32.613,0,0,0-9.643-1.482c-22.494,0-36.831,15.574-36.831,41.032v67.479c0,19.282,12.61,28.181,26.947,28.181,19.527,0,42.266-16.067,42.266-44.492v-151a1.852,1.852,0,0,0-2.546-1.719M79.926,189.5c0,9.391-8.4,15.326-15.322,15.326-4.453,0-8.406-2.719-8.406-8.9V127.212c0-9.395,8.406-15.326,15.326-15.326,4.445,0,8.4,2.719,8.4,8.9Zm78.157-100.9-.049.045c-15.074,15.326-17.3,28.674-17.3,51.909v60.931a2.716,2.716,0,0,1-2.031,2.629l-18.387,4.8a1.856,1.856,0,0,1-2.321-1.794V141.052c0-31.637,2.471-44.244,23.48-65.253l.572-.575a1.86,1.86,0,0,1,2.452-.154L157.88,85.462a2.1,2.1,0,0,1,.2,3.144M383.714,53.55c-19.282,0-41.773,15.078-41.773,44.492v53.146c0,19.279,12.6,28.177,26.94,28.177,19.527,0,42.269-16.067,42.269-44.492V79.256c0-17.3-12.855-25.706-27.436-25.706m4.694,87.5c0,9.395-8.406,15.326-15.322,15.326-4.449,0-8.41-2.719-8.41-8.9V91.863c0-9.391,8.41-15.326,15.326-15.326,4.449,0,8.406,2.719,8.406,8.9ZM210.24,90.607,195.9,108.328a2.105,2.105,0,0,1-2.9.354l-14.171-10.73a1.851,1.851,0,0,1-.335-2.629l14.333-18.128a2.1,2.1,0,0,1,2.945-.35l14.183,11.14a1.851,1.851,0,0,1,.29,2.621M326.611,73.773v83.843c0,26.7-21.75,45.233-41.028,45.233a27.1,27.1,0,0,1-13.7-3.592,1.848,1.848,0,0,0-2.366.433c-7.274,9.068-19.042,14.036-29.911,14.036-14.829,0-28.67-9.147-28.67-29.911V152.177c0-22.987,6.916-40.043,24.965-61.8l.327-.387a1.86,1.86,0,0,1,2.55-.256l13.592,10.6a2.172,2.172,0,0,1,.3,3.148l-.214.244c-13.1,15.574-18.79,30.4-18.79,50.92v27.933c0,6.179,3.96,8.9,8.41,8.9,6.92,0,15.318-5.931,15.318-15.326V126.573a2.72,2.72,0,0,1,2.012-2.625l18.395-5a1.855,1.855,0,0,1,2.339,1.79v49.483c0,6.179,3.953,8.9,8.406,8.9,6.916,0,15.322-5.935,15.322-15.326V79.606a2.718,2.718,0,0,1,2-2.621l18.4-5a1.849,1.849,0,0,1,2.336,1.786M189.844,124.181l-.169.56c-2.226,6.672-2.475,15.078-2.475,26.94v37.226a2.709,2.709,0,0,1-2,2.621l-18.391,5a1.851,1.851,0,0,1-2.343-1.786V151.681c0-19.279,1.237-27.436,3.708-34.849l.147-.433a1.846,1.846,0,0,1,2.377-1.158l17.842,6.356a2.109,2.109,0,0,1,1.309,2.584" transform="translate(92.36 84.109)" fill="#595e5c"/>
  </g>
</svg>
