<svg id="Component_1_1" data-name="Component 1 – 1" xmlns="http://www.w3.org/2000/svg" width="483.384" height="251.895" viewBox="0 0 483.384 251.895">
  <path id="Path_26" data-name="Path 26" d="M330.716,1078.818c-9.363,0-17.782-3.059-23.706-8.612-6.65-6.235-10.165-15.518-10.165-26.846V956.742c0-32.048,17.841-51.957,46.562-51.957a41.383,41.383,0,0,1,12.165,1.873l.922.284V839.169a2.767,2.767,0,0,1,1.743-2.578l23.732-9.544a1.66,1.66,0,0,1,2.289,1.544v193.828c0,21-9.517,34.28-17.5,41.717C356.741,1073.466,343.605,1078.818,330.716,1078.818Zm14.278-148.807c-9.642,0-20.385,8.372-20.385,20.385v88.2c0,5.6,3.012,12.135,11.5,12.135,12.013,0,20.385-10.743,20.385-20.384V942.147C356.494,936.549,353.482,930.011,344.994,930.011Zm215.752,130.723c-9.832,0-18.731-3.2-25.058-9.013-7.218-6.631-11.033-16.543-11.033-28.665V982.443c0-29.475,8.641-50.849,31.881-78.865l.418-.487a1.666,1.666,0,0,1,2.29-.231l17.453,13.6a2.079,2.079,0,0,1,.287,3.009l-.275.314c-17.255,20.511-24.29,39.58-24.29,65.83v35.853c0,5.6,3.012,12.136,11.5,12.136,9.641,0,20.384-8.372,20.384-20.385V949.576a2.782,2.782,0,0,1,2.049-2.68l23.611-6.416a1.662,1.662,0,0,1,2.1,1.608V1005.6c0,5.6,3.012,12.135,11.5,12.135,9.641,0,20.384-8.371,20.384-20.384V889.292a2.784,2.784,0,0,1,2.049-2.68l23.612-6.416a1.662,1.662,0,0,1,2.1,1.608v107.62c0,33.8-27.382,57.35-51.957,57.35a34.331,34.331,0,0,1-17.227-4.514,3.1,3.1,0,0,0-1.554-.418,3.051,3.051,0,0,0-2.392,1.142C589.8,1053.933,575.3,1060.734,560.746,1060.734Zm-153.728-6.093a1.667,1.667,0,0,1-1.662-1.668V968.165c0-39.5,2.452-55.777,29.933-83.258l.737-.737a1.668,1.668,0,0,1,2.2-.139l17.185,13.337a1.984,1.984,0,0,1,.186,2.971l-.06.06c-19.181,19.495-22.417,36.465-22.417,67.132v78.211a2.778,2.778,0,0,1-2.076,2.687l-23.6,6.157A1.714,1.714,0,0,1,407.018,1054.641Zm59.649-15.9a1.668,1.668,0,0,1-1.662-1.669V981.809c0-25.379,1.732-35.539,4.723-44.512l.184-.551a1.665,1.665,0,0,1,2.14-1.043l22.9,8.16a1.982,1.982,0,0,1,1.234,2.439l-.216.718c-2.966,8.9-3.2,20.521-3.2,34.789v47.78a2.783,2.783,0,0,1-2.05,2.68l-23.611,6.416A1.708,1.708,0,0,1,466.667,1038.745Zm260.019-22.115c-9.363,0-17.782-3.058-23.706-8.612-6.65-6.235-10.165-15.518-10.165-26.845V912.957c0-21.617,9.409-34.876,17.3-42.192a53.074,53.074,0,0,1,35.606-14.207c9.491,0,18.074,2.842,24.168,8,6.763,5.725,10.338,14.122,10.338,24.283v71.389c0,21-9.518,34.279-17.5,41.717C752.712,1011.279,739.575,1016.63,726.686,1016.63Zm14.278-131.99c-12.013,0-20.385,10.743-20.385,20.384v71.39c0,5.6,3.012,12.134,11.5,12.134,12.013,0,20.384-10.742,20.384-20.384V896.775C752.464,891.177,749.452,884.64,740.964,884.64ZM502.546,926.446a1.962,1.962,0,0,1-1.2-.4L483.159,912.27a1.666,1.666,0,0,1-.3-2.362l18.4-23.272a1.984,1.984,0,0,1,2.782-.329l18.2,14.3a1.666,1.666,0,0,1,.266,2.359L504.089,925.71A1.975,1.975,0,0,1,502.546,926.446Z" transform="translate(-296.845 -826.923)" fill="#c8e6f0"/>
</svg>
