<svg id="Group_5" data-name="Group 5" xmlns="http://www.w3.org/2000/svg" xmlns:xlink="http://www.w3.org/1999/xlink" width="484.35" height="336.793" viewBox="0 0 484.35 336.793">
  <defs>
    <clipPath id="clip-path">
      <rect id="Rectangle_3" data-name="Rectangle 3" width="484.35" height="336.793" fill="none"/>
    </clipPath>
  </defs>
  <g id="Group_5-2" data-name="Group 5" clip-path="url(#clip-path)">
    <path id="Path_5" data-name="Path 5" d="M84.761,30.569,70.534,36.292a2.1,2.1,0,0,0-1.314,1.942V78.289a25.1,25.1,0,0,0-7.422-1.14c-17.312,0-28.347,11.986-28.347,31.58v51.935c0,14.84,9.706,21.689,20.74,21.689,15.029,0,32.529-12.366,32.529-34.243V31.892a1.425,1.425,0,0,0-1.96-1.323M69.22,152.865c0,7.228-6.466,11.8-11.793,11.8-3.427,0-6.469-2.093-6.469-6.849V104.925c0-7.231,6.469-11.8,11.8-11.8,3.421,0,6.466,2.093,6.466,6.849Zm60.152-77.653-.038.035c-11.6,11.8-13.315,22.068-13.315,39.951v46.9a2.091,2.091,0,0,1-1.563,2.023l-14.152,3.693a1.428,1.428,0,0,1-1.786-1.381V115.577c0-24.349,1.9-34.052,18.071-50.221l.44-.443a1.432,1.432,0,0,1,1.887-.119l10.3,8a1.617,1.617,0,0,1,.156,2.42m173.654-26.98c-14.841,0-32.15,11.6-32.15,34.243v40.9c0,14.838,9.7,21.686,20.734,21.686,15.029,0,32.532-12.366,32.532-34.243V68.016c0-13.315-9.894-19.784-21.116-19.784m3.612,67.345c0,7.231-6.469,11.8-11.793,11.8-3.424,0-6.472-2.093-6.472-6.849V77.719c0-7.228,6.472-11.8,11.8-11.8,3.424,0,6.469,2.093,6.469,6.849ZM169.515,76.752,158.478,90.391a1.62,1.62,0,0,1-2.235.272l-10.907-8.258a1.424,1.424,0,0,1-.258-2.023L156.11,66.43a1.615,1.615,0,0,1,2.266-.269l10.915,8.574a1.425,1.425,0,0,1,.223,2.018M259.079,63.8v64.529c0,20.546-16.739,34.813-31.577,34.813a20.858,20.858,0,0,1-10.545-2.764,1.422,1.422,0,0,0-1.821.333,30.165,30.165,0,0,1-23.021,10.8c-11.413,0-22.065-7.04-22.065-23.021V124.139c0-17.692,5.323-30.819,19.214-47.561l.252-.3a1.431,1.431,0,0,1,1.962-.2L201.94,84.24a1.672,1.672,0,0,1,.234,2.423l-.165.188c-10.082,11.986-14.461,23.4-14.461,39.19v21.5c0,4.756,3.048,6.849,6.472,6.849,5.326,0,11.79-4.565,11.79-11.8V104.433a2.093,2.093,0,0,1,1.549-2.02l14.157-3.847a1.427,1.427,0,0,1,1.8,1.378v38.084c0,4.756,3.042,6.849,6.469,6.849,5.323,0,11.792-4.568,11.792-11.8v-64.8a2.092,2.092,0,0,1,1.543-2.018l14.16-3.847a1.423,1.423,0,0,1,1.8,1.375m-105.261,38.8-.13.431c-1.714,5.135-1.9,11.6-1.9,20.734v28.651a2.085,2.085,0,0,1-1.543,2.018l-14.155,3.847a1.425,1.425,0,0,1-1.8-1.375v-33.14c0-14.838.952-21.116,2.854-26.821l.113-.333a1.421,1.421,0,0,1,1.829-.892L152.81,100.6a1.623,1.623,0,0,1,1.007,1.989" transform="translate(63.377 57.716)" fill="#1e2123"/>
  </g>
</svg>
