<svg xmlns="http://www.w3.org/2000/svg" xmlns:xlink="http://www.w3.org/1999/xlink" width="33.568" height="38.919" viewBox="0 0 33.568 38.919">
  <defs>
    <clipPath id="clip-path">
      <rect id="Rectangle_87" data-name="Rectangle 87" width="33.568" height="38.919" transform="translate(0 0)" fill="none"/>
    </clipPath>
  </defs>
  <g id="Group_13" data-name="Group 13" transform="translate(0 0)">
    <g id="Group_12" data-name="Group 12" clip-path="url(#clip-path)">
      <path id="Path_13" data-name="Path 13" d="M32.061,22.135A15.277,15.277,0,1,1,16.784,6.857,15.277,15.277,0,0,1,32.061,22.135" fill="#f5f5f7"/>
      <circle id="Ellipse_50" data-name="Ellipse 50" cx="15.277" cy="15.277" r="15.277" transform="translate(1.507 6.857)" fill="none" stroke="#1b68f7" stroke-width="3.014"/>
      <path id="Path_14" data-name="Path 14" d="M27.784,22.135A11,11,0,1,1,9.714,13.7l7.07,8.43v-11a11,11,0,0,1,11,11" fill="#c6dafd"/>
      <line id="Line_5" data-name="Line 5" x2="13.023" transform="translate(10.273 1.809)" fill="none" stroke="#1b68f7" stroke-width="3.617"/>
      <line id="Line_6" data-name="Line 6" y1="3.435" x2="3.435" transform="translate(27.39 7.709)" fill="none" stroke="#1b68f7" stroke-width="4.823"/>
      <path id="Path_15" data-name="Path 15" d="M9.724,13.7l7.06,8.43v-11" fill="none" stroke="#1b68f7" stroke-linejoin="bevel" stroke-width="3.014"/>
    </g>
  </g>
</svg>
