<?xml version="1.0" encoding="UTF-8"?>
<svg id="Layer_1" data-name="Layer 1" xmlns="http://www.w3.org/2000/svg" xmlns:xlink="http://www.w3.org/1999/xlink" viewBox="0 0 76.21 115.19">
  <defs>
    <style>
      .cls-1, .cls-2, .cls-3 {
        fill: none;
      }

      .cls-4 {
        fill: #1e2123;
      }

      .cls-5 {
        clip-path: url(#clippath-1);
      }

      .cls-6 {
        fill: #fff;
      }

      .cls-2, .cls-3 {
        stroke: #202123;
        stroke-miterlimit: 10;
        stroke-width: 8px;
      }

      .cls-3 {
        stroke-linecap: round;
      }

      .cls-7 {
        clip-path: url(#clippath);
      }
    </style>
    <clipPath id="clippath">
      <rect class="cls-1" x="0" width="76.21" height="115.19"/>
    </clipPath>
    <clipPath id="clippath-1">
      <rect class="cls-1" width="76.21" height="115.19"/>
    </clipPath>
  </defs>
  <g id="Group_135" data-name="Group 135">
    <g class="cls-7">
      <g id="Group_134" data-name="Group 134">
        <path id="Path_118" data-name="Path 118" class="cls-6" d="M24.2,4h27.81c11.16,0,20.2,9.04,20.2,20.2v66.79c0,11.16-9.04,20.2-20.2,20.2h-27.81c-11.16,0-20.2-9.04-20.2-20.2V24.2C4,13.04,13.04,4,24.2,4"/>
        <path id="Rectangle_224" data-name="Rectangle 224" class="cls-2" d="M24.2,4h27.81c11.16,0,20.2,9.04,20.2,20.2v66.78c0,11.16-9.04,20.2-20.2,20.2h-27.81c-11.16,0-20.2-9.04-20.2-20.2V24.2C4,13.04,13.04,4,24.2,4Z"/>
        <line id="Line_9" data-name="Line 9" class="cls-3" x1="28.59" y1="17.31" x2="47.62" y2="17.31"/>
      </g>
    </g>
  </g>
  <g id="Group_137" data-name="Group 137">
    <g class="cls-5">
      <g id="Group_136" data-name="Group 136">
        <path id="Path_119" data-name="Path 119" class="cls-4" d="M35.75,36.15h4.77c2.63,0,4.77,2.13,4.77,4.77v4.77c0,2.63-2.13,4.77-4.77,4.77h-4.77c-2.63,0-4.77-2.13-4.77-4.77v-4.77c0-2.63,2.13-4.77,4.77-4.77"/>
        <path id="Path_120" data-name="Path 120" class="cls-4" d="M35.75,52.83h4.77c2.63,0,4.77,2.13,4.77,4.77v4.77c0,2.63-2.13,4.77-4.77,4.77h-4.77c-2.63,0-4.77-2.13-4.77-4.77v-4.77c0-2.63,2.13-4.77,4.77-4.77"/>
        <path id="Path_121" data-name="Path 121" class="cls-4" d="M35.75,69.51h4.77c2.63,0,4.77,2.13,4.77,4.77v4.77c0,2.63-2.13,4.77-4.77,4.77h-4.77c-2.63,0-4.77-2.13-4.77-4.77v-4.77c0-2.63,2.13-4.77,4.77-4.77"/>
        <path id="Path_122" data-name="Path 122" class="cls-4" d="M19.07,36.15h4.77c2.63,0,4.77,2.13,4.77,4.76h0v4.77c0,2.63-2.13,4.77-4.77,4.77h-4.77c-2.63,0-4.77-2.13-4.77-4.77v-4.77c0-2.63,2.13-4.77,4.77-4.77"/>
        <path id="Path_123" data-name="Path 123" class="cls-4" d="M19.07,52.83h4.77c2.63,0,4.77,2.13,4.77,4.76h0v4.77c0,2.63-2.13,4.77-4.77,4.77h-4.77c-2.63,0-4.77-2.13-4.77-4.77v-4.77c0-2.63,2.13-4.77,4.77-4.77"/>
        <path id="Path_124" data-name="Path 124" class="cls-4" d="M19.07,69.51h4.77c2.63,0,4.77,2.13,4.77,4.76h0v4.77c0,2.63-2.13,4.77-4.77,4.77h-4.77c-2.63,0-4.77-2.13-4.77-4.77v-4.77c0-2.63,2.13-4.77,4.77-4.77"/>
        <path id="Path_125" data-name="Path 125" class="cls-4" d="M52.43,36.15h4.77c2.63,0,4.77,2.13,4.77,4.77v4.77c0,2.63-2.13,4.77-4.77,4.77h-4.77c-2.63,0-4.77-2.13-4.77-4.77v-4.77c0-2.63,2.13-4.77,4.77-4.77"/>
        <path id="Path_126" data-name="Path 126" class="cls-4" d="M52.43,52.83h4.77c2.63,0,4.77,2.13,4.77,4.77v4.77c0,2.63-2.13,4.77-4.77,4.77h-4.77c-2.63,0-4.77-2.13-4.77-4.77v-4.77c0-2.63,2.13-4.77,4.77-4.77"/>
        <path id="Path_127" data-name="Path 127" class="cls-4" d="M52.43,69.51h4.77c2.63,0,4.77,2.13,4.77,4.77v4.77c0,2.63-2.13,4.77-4.77,4.77h-4.77c-2.63,0-4.77-2.13-4.77-4.77v-4.77c0-2.63,2.13-4.77,4.77-4.77"/>
        <path id="Path_128" data-name="Path 128" class="cls-4" d="M35.75,86.19h4.77c2.63,0,4.77,2.13,4.77,4.77v4.77c0,2.63-2.13,4.77-4.77,4.77h-4.77c-2.63,0-4.77-2.13-4.77-4.77v-4.77c0-2.63,2.13-4.77,4.77-4.77"/>
      </g>
    </g>
  </g>
</svg>