<svg id="Group_4" data-name="Group 4" xmlns="http://www.w3.org/2000/svg" xmlns:xlink="http://www.w3.org/1999/xlink" width="500" height="450.246" viewBox="0 0 500 450.246">
  <defs>
    <clipPath id="clip-path">
      <rect id="Rectangle_2" data-name="Rectangle 2" width="500" height="450.246" fill="none"/>
    </clipPath>
  </defs>
  <g id="Group_3" data-name="Group 3" clip-path="url(#clip-path)">
    <path id="Path_2" data-name="Path 2" d="M333.308,6.066H147.423a48.419,48.419,0,0,0-41.937,24.212L12.544,191.259a48.42,48.42,0,0,0,0,48.425l92.942,160.983a48.424,48.424,0,0,0,41.937,24.212H333.308a48.431,48.431,0,0,0,41.937-24.212l92.942-160.983a48.42,48.42,0,0,0,0-48.425L375.245,30.278A48.425,48.425,0,0,0,333.308,6.066" transform="translate(9.634 9.651)" fill="#fff"/>
    <path id="Path_3" data-name="Path 3" d="M342.942,450.248H157.058a64.323,64.323,0,0,1-55.545-32.071L8.565,257.194a64.314,64.314,0,0,1,0-64.141L101.51,32.07A64.325,64.325,0,0,1,157.058,0H342.942a64.323,64.323,0,0,1,55.55,32.071l92.945,160.983a64.315,64.315,0,0,1,0,64.141l-92.94,160.983a64.336,64.336,0,0,1-55.552,32.071M157.058,31.435a32.8,32.8,0,0,0-28.327,16.354l-92.94,160.98a32.786,32.786,0,0,0,0,32.705l92.945,160.983a32.792,32.792,0,0,0,28.324,16.354H342.942a32.8,32.8,0,0,0,28.329-16.354l92.94-160.983a32.786,32.786,0,0,0,0-32.705L371.269,47.789a32.793,32.793,0,0,0-28.327-16.354Z" transform="translate(0 -0.002)" fill="#f71d4c"/>
    <path id="Path_4" data-name="Path 4" d="M143.406,232.4H85.571V28.723h57.835Zm0,93.875H85.571v-57h57.835Z" transform="translate(136.139 45.697)" fill="#f71d4c"/>
  </g>
</svg>
