<svg xmlns="http://www.w3.org/2000/svg" xmlns:xlink="http://www.w3.org/1999/xlink" width="459" height="188" viewBox="0 0 459 188">
  <defs>
    <clipPath id="clip-path">
      <rect id="Rectangle_156" data-name="Rectangle 156" width="175.213" height="53.196" fill="#fff"/>
    </clipPath>
    <clipPath id="clip-path-2">
      <rect id="Rectangle_160" data-name="Rectangle 160" width="86.717" height="71.702" fill="none"/>
    </clipPath>
    <clipPath id="clip-path-3">
      <rect id="Rectangle_159" data-name="Rectangle 159" width="86.717" height="71.702" transform="translate(0 0)" fill="none"/>
    </clipPath>
    <clipPath id="clip-path-4">
      <rect id="Rectangle_158" data-name="Rectangle 158" width="10.104" height="4.97" transform="translate(68.189 16.236)" fill="none"/>
    </clipPath>
    <clipPath id="clip-path-5">
      <rect id="Rectangle_157" data-name="Rectangle 157" width="10.104" height="4.971" transform="translate(68.189 16.236)" fill="none"/>
    </clipPath>
  </defs>
  <g id="Group_90" data-name="Group 90" transform="translate(-61 -772)">
    <rect id="Rectangle_90" data-name="Rectangle 90" width="459" height="188" rx="30" transform="translate(61 772)" fill="#ff600a"/>
    <g id="Group_71" data-name="Group 71" transform="translate(-499.535 -62.621)">
      <g id="Group_58" data-name="Group 58" transform="translate(756.252 899.874)">
        <g id="Group_57" data-name="Group 57" clip-path="url(#clip-path)">
          <path id="Path_43" data-name="Path 43" d="M510.618,43.07a10.653,10.653,0,0,0-4.193.7,2.225,2.225,0,0,0-1.613,2.038q0,1.339,1.677,1.947a32.89,32.89,0,0,0,5.226,1.216l2.323.365,1.42.243q6.968,1.277,10.517,4.411a10.264,10.264,0,0,1,3.549,8.061,12.879,12.879,0,0,1-2.71,8.426,15.522,15.522,0,0,1-7.033,4.836,28.434,28.434,0,0,1-9.485,1.521,45.878,45.878,0,0,1-11.453-1.369,30.223,30.223,0,0,1-9.194-3.923l6-9.43a47.227,47.227,0,0,0,7,3.224,23.315,23.315,0,0,0,7.775,1.156,9.988,9.988,0,0,0,4.194-.73,2.378,2.378,0,0,0,1.549-2.251,1.89,1.89,0,0,0-.9-1.642,7.513,7.513,0,0,0-2.485-.973q-1.581-.365-5.065-.912l-1.677-.244q-7.615-1.216-11.066-4.35a11.037,11.037,0,0,1-3.452-8.608,12.356,12.356,0,0,1,2.29-7.392,14.858,14.858,0,0,1,6.42-4.958,24.318,24.318,0,0,1,9.615-1.764,44.875,44.875,0,0,1,9.323.912,43.465,43.465,0,0,1,9.775,3.59L523.652,46.6a27.688,27.688,0,0,0-13.034-3.528" transform="translate(-354.31 -23.638)" fill="#fff"/>
          <path id="Path_44" data-name="Path 44" d="M194.58,78.114V35.53h12.259V67.468h21.744V78.114Z" transform="translate(-140.798 -25.71)" fill="#fff"/>
          <path id="Path_45" data-name="Path 45" d="M68.554,35.813a19.084,19.084,0,0,0-12.47-4.435v11.49h.532A3.99,3.99,0,0,1,59.231,44.2a4.765,4.765,0,0,1,1.484,3.728,4.675,4.675,0,0,1-1.484,3.658,5.474,5.474,0,0,1-3.807,1.337H33.211V75.11h12.26V63.024H55.747a19.181,19.181,0,0,0,12.84-4.586C71.6,55.823,73.1,51.627,73.1,47.247c0-4.5-1.516-8.778-4.549-11.434" transform="translate(-24.032 -22.705)" fill="#fff"/>
          <path id="Path_46" data-name="Path 46" d="M30.618,8.662H21.431V0H9.187V8.662H0V20.206H9.187v8.662H21.431V20.206h9.187Z" transform="translate(0 0)" fill="#fff"/>
          <path id="Path_47" data-name="Path 47" d="M362.249,74.19q-5.163,4.716-14.84,4.715t-14.84-4.715q-5.163-4.713-5.162-13.475V35.529h12.324V60.411a7.2,7.2,0,0,0,2.033,5.506,7.906,7.906,0,0,0,5.646,1.917,8.027,8.027,0,0,0,5.678-1.917,7.142,7.142,0,0,0,2.065-5.506V35.529h12.259V60.715q0,8.76-5.162,13.475" transform="translate(-236.912 -25.709)" fill="#fff"/>
        </g>
      </g>
      <g id="Group_67" data-name="Group 67" transform="translate(649.535 892.621)">
        <g id="Group_66" data-name="Group 66" clip-path="url(#clip-path-2)">
          <g id="Group_65" data-name="Group 65">
            <g id="Group_64" data-name="Group 64" clip-path="url(#clip-path-3)">
              <path id="Path_48" data-name="Path 48" d="M83.49,14.109C82.837,13.149,73.953,0,58.547,0H25.634A19.414,19.414,0,0,0,6.247,19.4V55.62c0,1.1-1.7.442-1.7.442A3.488,3.488,0,0,0,3.2,55.794a3.2,3.2,0,0,0-3.2,3.2c0,3.78,5.925,5.381,8.283,5.381a13.437,13.437,0,0,0,2.062-.157A19.359,19.359,0,0,0,25.634,71.7H58.547A19.418,19.418,0,0,0,77.939,52.3V32.453s4.031-5.084,4.454-5.63l.007-.011a67.619,67.619,0,0,0,4.063-6.1c.706-1.453.009-2.226-2.973-6.608" fill="#fff"/>
              <path id="Path_49" data-name="Path 49" d="M64.139,51.048a7.523,7.523,0,0,0,2.325.342c3.508,0,5.153-1.39,5.153-3.051,0-1.942-2.621-1.935-2.9-3.642-.342-2.134-.123-11.581,3.542-16.8L74.7,29a3.2,3.2,0,0,0,1.544.354,2.4,2.4,0,0,0,1.659-.852,53.208,53.208,0,0,0,6.406-8.829c.3-.623-4.856-7.066-7.744-9.406a11.582,11.582,0,0,0-18.14,5.206,55.072,55.072,0,0,1-16.377,7.775c-7.9,2.082-16.078.139-21.631.416-7.147.361-11.4,5.6-11.233,11.666C9.358,41.5,13.6,47.1,13.6,52.887a6.339,6.339,0,0,1-6.231,6.537c-3.038,0-3.239-1.24-4.163-1.24a.822.822,0,0,0-.809.807c0,1.532,3.757,2.99,5.891,2.99a9.407,9.407,0,0,0,8.07-4.066s1.448,4.211,7.066,4.211c4.48,0,6.421-2.142,6.421-3.931,0-1.453-.886-2.068-1.518-2.922a4.824,4.824,0,0,1-.856-2.689,16.753,16.753,0,0,0,2.429.158c3.256,0,4.26-1.321,4.26-2.617,0-1.673-1.955-1.555-1.955-4.3,0-2.075,1.15-2.758,2.163-2.758,1.1,0,5.248.4,10.278.914,1.682.167,5.866,1.793,5.866,8.295v2.339c0,3.968,1.6,8.874,8.611,8.874,4.76,0,7.432-2.657,7.432-4.577,0-1.252-1.1-1.8-1.638-2.555-1.587-2.225-.805-5.312-.805-5.312" fill="#ff600a"/>
              <path id="Path_50" data-name="Path 50" d="M75.686,22.638a.826.826,0,1,0,0,1.652.826.826,0,0,0,0-1.652" fill="#fff"/>
              <path id="Path_51" data-name="Path 51" d="M78.569,20.22a.749.749,0,1,0,.743.75.749.749,0,0,0-.743-.75" fill="#fff"/>
              <path id="Path_52" data-name="Path 52" d="M79.918,17.443a.619.619,0,1,0,.618.618.623.623,0,0,0-.618-.618" fill="#fff"/>
              <path id="Path_53" data-name="Path 53" d="M56.242,21.361a.894.894,0,1,0-.893-.893.893.893,0,0,0,.893.893" fill="#fff"/>
              <path id="Path_54" data-name="Path 54" d="M59.674,42.986a.892.892,0,1,0,.894.893.89.89,0,0,0-.894-.893" fill="#fff"/>
              <path id="Path_55" data-name="Path 55" d="M65,43.878a.893.893,0,1,0,.895.888A.891.891,0,0,0,65,43.878" fill="#fff"/>
              <path id="Path_56" data-name="Path 56" d="M60.416,34.858a.893.893,0,1,0,.9.893.892.892,0,0,0-.9-.893" fill="#fff"/>
              <path id="Path_57" data-name="Path 57" d="M63.459,28.807a.893.893,0,1,0-.886-.893.894.894,0,0,0,.886.893" fill="#fff"/>
              <path id="Path_58" data-name="Path 58" d="M49.527,25.195a.893.893,0,1,0-.893-.893.893.893,0,0,0,.893.893" fill="#fff"/>
              <path id="Path_59" data-name="Path 59" d="M54.525,41.15a.894.894,0,1,0,.895.893.892.892,0,0,0-.895-.893" fill="#fff"/>
              <path id="Path_60" data-name="Path 60" d="M52.067,29.6a.894.894,0,1,0-.893-.9.894.894,0,0,0,.893.9" fill="#fff"/>
              <path id="Path_61" data-name="Path 61" d="M46.415,34.681a.892.892,0,1,0,.9.893.892.892,0,0,0-.9-.893" fill="#fff"/>
              <path id="Path_62" data-name="Path 62" d="M55.655,33.726a.892.892,0,1,0-.891-.891.893.893,0,0,0,.891.891" fill="#fff"/>
              <path id="Path_63" data-name="Path 63" d="M41.542,25.718a.895.895,0,1,0,.893.9.894.894,0,0,0-.893-.9" fill="#fff"/>
              <path id="Path_64" data-name="Path 64" d="M43.485,30.358a.892.892,0,1,0,.891.893.893.893,0,0,0-.891-.893" fill="#fff"/>
              <path id="Path_65" data-name="Path 65" d="M50.026,38.146a.9.9,0,1,0,.9.9.9.9,0,0,0-.9-.9" fill="#fff"/>
              <path id="Path_66" data-name="Path 66" d="M59.211,25.509a.891.891,0,1,0-.893-.888.891.891,0,0,0,.893.888" fill="#fff"/>
              <path id="Path_67" data-name="Path 67" d="M65.784,36.566a.895.895,0,1,0,.891.893.895.895,0,0,0-.891-.893" fill="#fff"/>
              <path id="Path_68" data-name="Path 68" d="M68.023,29.278a.892.892,0,1,0,.895.893.893.893,0,0,0-.895-.893" fill="#fff"/>
              <path id="Path_69" data-name="Path 69" d="M67.445,21.934a.9.9,0,1,0,.893.9.892.892,0,0,0-.893-.9" fill="#fff"/>
              <path id="Path_70" data-name="Path 70" d="M71.691,23.306a.892.892,0,1,0,.891.893.892.892,0,0,0-.891-.893" fill="#fff"/>
              <path id="Path_71" data-name="Path 71" d="M64.261,19.173a.892.892,0,1,0,.893.893.895.895,0,0,0-.893-.893" fill="#fff"/>
              <path id="Path_72" data-name="Path 72" d="M62.5,15.806a.892.892,0,1,0,.9.893.895.895,0,0,0-.9-.893" fill="#fff"/>
              <path id="Path_73" data-name="Path 73" d="M66.205,15.806a.892.892,0,1,0,.895.893.895.895,0,0,0-.895-.893" fill="#fff"/>
              <path id="Path_74" data-name="Path 74" d="M61.982,13.364a.746.746,0,1,1,.743.75.749.749,0,0,1-.743-.75" fill="#fff"/>
              <path id="Path_75" data-name="Path 75" d="M64.2,10.648a.559.559,0,1,1,.559.569.558.558,0,0,1-.559-.569" fill="#fff"/>
              <path id="Path_76" data-name="Path 76" d="M67.079,9.368a.494.494,0,1,1,.988,0,.494.494,0,0,1-.988,0" fill="#fff"/>
              <path id="Path_77" data-name="Path 77" d="M79.353,15.526a.453.453,0,1,1,.449.447.448.448,0,0,1-.449-.447" fill="#fff"/>
              <path id="Path_78" data-name="Path 78" d="M78.716,24.459a.494.494,0,0,1,.47-.509.491.491,0,0,1,.044.981.5.5,0,0,1-.514-.472" fill="#fff"/>
              <path id="Path_79" data-name="Path 79" d="M79.983,22.734a.486.486,0,1,1,.5.465.482.482,0,0,1-.5-.465" fill="#fff"/>
              <path id="Path_80" data-name="Path 80" d="M77.378,26.166a.485.485,0,1,1,.5.463.479.479,0,0,1-.5-.463" fill="#fff"/>
              <path id="Path_81" data-name="Path 81" d="M75.864,27.768a.481.481,0,0,1,.463-.507.486.486,0,1,1-.463.507" fill="#fff"/>
              <path id="Path_82" data-name="Path 82" d="M81.142,21.018a.484.484,0,1,1,.5.47.485.485,0,0,1-.5-.47" fill="#fff"/>
              <path id="Path_83" data-name="Path 83" d="M82.039,19.511a.484.484,0,1,1,.5.472.481.481,0,0,1-.5-.472" fill="#fff"/>
              <path id="Path_84" data-name="Path 84" d="M26.267,57.256S23,51.61,25.258,45.812c2.5-6.4,9.679-5.571,9.679-5.571a8.387,8.387,0,0,0-3.793-.736c-4.983.192-8.852,4.743-8.642,10.16a10.135,10.135,0,0,0,3.765,7.591" fill="#fff"/>
              <path id="Path_85" data-name="Path 85" d="M14.2,39.259a7.753,7.753,0,0,1-2.272-5.491,7.915,7.915,0,0,1,7.758-7.762c4.415-.236,12.515,1.087,17.679.409,1.785,7.974,7.665,13.594,12.146,17.171-5.325-2.376-10.674-8.679-16.847-12.1-6.448-3.574-12.916-4.109-16.312-.983-2.926,2.691-2.693,6.5-2.152,8.76" fill="#fff"/>
              <path id="Path_86" data-name="Path 86" d="M32.463,47.306c.4,2.3-3.746,3.031-3.746,3.031C32.488,51.006,33.756,49,33.756,49c-.236-.3-1.293-1.7-1.293-1.7" fill="#fff"/>
              <path id="Path_87" data-name="Path 87" d="M62.5,48.538l0-.025S60.054,52,61.733,58.344a11.12,11.12,0,0,1-4.37,2.219s5.689.735,7.471-2.293c-3.438-2.661-2.411-9.283-2.337-9.732" fill="#fff"/>
              <path id="Path_88" data-name="Path 88" d="M73.849,12.193c-2.217-.407-4.288.763-4.619,2.6s1.185,3.66,3.4,4.065,4.285-.761,4.618-2.6-1.187-3.662-3.4-4.067m2.774,3.917a2.943,2.943,0,0,1-5.692-1.034,2.942,2.942,0,0,1,5.692,1.034" fill="#fff"/>
              <path id="Path_89" data-name="Path 89" d="M73.645,15.539a1.629,1.629,0,0,1,3.151.572,1.629,1.629,0,0,1-3.151-.572" fill="#fff"/>
              <path id="Path_90" data-name="Path 90" d="M69.011,45.4h0C70.374,47.933,66,48.863,66,48.863c3.036.511,4.7-1.324,4.7-2.129a7.749,7.749,0,0,1-1.7-1.335" fill="#fff"/>
              <path id="Path_91" data-name="Path 91" d="M42.348,37.236s.567.683,1.534,1.634a35.388,35.388,0,0,0,3.774,3.223,33.211,33.211,0,0,0,4.2,2.667c.6.329,1.113.57,1.471.734s.567.266.567.266l-.578-.238c-.368-.148-.9-.366-1.506-.667a33.382,33.382,0,0,1-4.355-2.485,35.853,35.853,0,0,1-3.973-3.082c-1.022-.914-1.652-1.6-1.652-1.6a.341.341,0,0,1,.5-.463l.012.014" fill="#fff"/>
              <path id="Path_92" data-name="Path 92" d="M78.135,14.2a6.4,6.4,0,0,0-10.8-.509,1.038,1.038,0,1,1-1.6-1.319,7.563,7.563,0,0,1,5.606-2.494,7.406,7.406,0,0,1,6.8,4.322" fill="#fff"/>
              <path id="Path_93" data-name="Path 93" d="M71.2,27.392a15.1,15.1,0,0,1-7.964-3.216,16.356,16.356,0,0,1-4.968-5.616.688.688,0,0,1,.248-.937.672.672,0,0,1,.937.243,18.449,18.449,0,0,0,4.713,6.028,16.038,16.038,0,0,0,7.034,3.5" fill="#fff"/>
              <path id="Path_94" data-name="Path 94" d="M68.157,33.635A19.9,19.9,0,0,1,55.67,27.487a20.257,20.257,0,0,1-3.883-5.511.684.684,0,0,1,.268-.93.67.67,0,0,1,.931.271A23.2,23.2,0,0,0,57.592,28.2a18.425,18.425,0,0,0,10.565,5.437" fill="#fff"/>
              <path id="Path_95" data-name="Path 95" d="M44.974,24.274a.7.7,0,0,1,.87.426c1.761,4.371,2.7,6.164,6.069,9.729a22.471,22.471,0,0,0,14.778,6.62c-3.1.275-10.74-1.171-16.041-6.675a26.228,26.228,0,0,1-6.1-9.23.688.688,0,0,1,.426-.87" fill="#fff"/>
              <g id="Group_63" data-name="Group 63" opacity="0.9">
                <g id="Group_62" data-name="Group 62">
                  <g id="Group_61" data-name="Group 61" clip-path="url(#clip-path-4)">
                    <g id="Group_60" data-name="Group 60">
                      <g id="Group_59" data-name="Group 59" clip-path="url(#clip-path-5)">
                        <path id="Path_96" data-name="Path 96" d="M69.189,18.978a7.647,7.647,0,0,0,3.968,1.229,4.848,4.848,0,0,0,5.134-3.971A5.506,5.506,0,0,1,72.674,21.2a7.581,7.581,0,0,1-4.105-.986.7.7,0,0,1-.306-.93.667.667,0,0,1,.926-.31" fill="#fff"/>
                      </g>
                    </g>
                  </g>
                </g>
              </g>
            </g>
          </g>
        </g>
      </g>
    </g>
  </g>
</svg>
