<svg xmlns="http://www.w3.org/2000/svg" xmlns:xlink="http://www.w3.org/1999/xlink" width="33.568" height="38.919" viewBox="0 0 33.568 38.919">
  <defs>
    <clipPath id="clip-path">
      <rect id="Rectangle_86" data-name="Rectangle 86" width="33.568" height="38.919" transform="translate(0 0)" fill="none"/>
    </clipPath>
  </defs>
  <g id="Group_11" data-name="Group 11" transform="translate(0 0)">
    <g id="Group_10" data-name="Group 10" clip-path="url(#clip-path)">
      <path id="Path_10" data-name="Path 10" d="M32.061,22.135A15.277,15.277,0,1,1,16.784,6.857,15.277,15.277,0,0,1,32.061,22.135" fill="#f5f5f7"/>
      <circle id="Ellipse_49" data-name="Ellipse 49" cx="15.277" cy="15.277" r="15.277" transform="translate(1.507 6.857)" fill="none" stroke="#1b68f7" stroke-width="3.014"/>
      <path id="Path_11" data-name="Path 11" d="M27.784,22.135a11,11,0,0,1-19.44,7.059l8.44-7.059v-11a11,11,0,0,1,11,11" fill="#c6dafd"/>
      <line id="Line_3" data-name="Line 3" x2="13.023" transform="translate(10.273 1.809)" fill="none" stroke="#1b68f7" stroke-width="3.617"/>
      <line id="Line_4" data-name="Line 4" y1="3.435" x2="3.435" transform="translate(27.39 7.709)" fill="none" stroke="#1b68f7" stroke-width="4.823"/>
      <path id="Path_12" data-name="Path 12" d="M8.354,29.194l8.43-7.06v-11" fill="none" stroke="#1b68f7" stroke-width="3.014"/>
    </g>
  </g>
</svg>
