<svg xmlns="http://www.w3.org/2000/svg" xmlns:xlink="http://www.w3.org/1999/xlink" width="33.568" height="38.919" viewBox="0 0 33.568 38.919">
  <defs>
    <clipPath id="clip-path">
      <rect id="Rectangle_83" data-name="Rectangle 83" width="33.568" height="38.919" transform="translate(0 0)" fill="none"/>
    </clipPath>
  </defs>
  <g id="Group_9" data-name="Group 9" transform="translate(0 0)">
    <g id="Group_8" data-name="Group 8" clip-path="url(#clip-path)">
      <path id="Path_7" data-name="Path 7" d="M32.061,22.135A15.277,15.277,0,1,1,16.784,6.857,15.277,15.277,0,0,1,32.061,22.135" fill="#f5f5f7"/>
      <circle id="Ellipse_48" data-name="Ellipse 48" cx="15.277" cy="15.277" r="15.277" transform="translate(1.507 6.857)" fill="none" stroke="#1b68f7" stroke-width="3.014"/>
      <path id="Path_8" data-name="Path 8" d="M27.784,22.135a10.944,10.944,0,0,1-3.94,8.43l-7.06-8.43v-11a11.007,11.007,0,0,1,11,11" fill="#c6dafd"/>
      <line id="Line_1" data-name="Line 1" x2="13.023" transform="translate(10.273 1.809)" fill="none" stroke="#1b68f7" stroke-width="3.617"/>
      <line id="Line_2" data-name="Line 2" y1="3.435" x2="3.435" transform="translate(27.39 7.709)" fill="none" stroke="#1b68f7" stroke-width="4.823"/>
      <path id="Path_9" data-name="Path 9" d="M16.784,11.135v11l7.06,8.43" fill="none" stroke="#1b68f7" stroke-width="3.014"/>
    </g>
  </g>
</svg>
